<?xml version="1.0" encoding="UTF-8"?>
<svg id="Camada_2" data-name="Camada 2" xmlns="http://www.w3.org/2000/svg" viewBox="0 0 1709.77 387.45">
  <defs>
    <style>
      .cls-1 {
        fill: #005270;
        stroke-width: 0px;
      }
    </style>
  </defs>
  <g id="Camada_5" data-name="Camada 5">
    <g>
      <path class="cls-1" d="M1373.35,143.66v-59.69h6.23v6.48c3.12-4.92,7.6-7.38,13.45-7.38s10.55,2.29,13.77,6.88c2.84,3.99,4.26,9.24,4.26,15.74,0,6.94-1.86,12.35-5.58,16.23-3.22,3.39-7.4,5.08-12.54,5.08s-9.48-1.88-12.87-5.65v22.3h-6.72ZM1391.88,89.3c-3.55,0-6.41,1.45-8.57,4.35-2.16,2.9-3.24,6.78-3.24,11.64s1.23,8.96,3.69,11.8c2.08,2.41,4.78,3.61,8.12,3.61,3.71,0,6.68-1.41,8.89-4.22,2.21-2.81,3.32-6.55,3.32-11.19,0-5.14-1.26-9.18-3.77-12.13-2.24-2.57-5.06-3.85-8.44-3.85Z"/>
      <path class="cls-1" d="M1456.81,120.45v5.41c-1.86.66-3.31.99-4.35.99-4.37,0-6.75-1.99-7.13-5.98-3,4.1-7.79,6.15-14.35,6.15-4.54,0-8.06-1.25-10.57-3.77-2.19-2.19-3.28-5-3.28-8.44,0-3.94,1.4-6.97,4.18-9.1,1.58-1.2,4.89-2.38,9.92-3.52l13.77-3.12.08-3.52c0-4.21-3.17-6.31-9.51-6.31s-9.32,2.46-9.76,7.38h-6.81c.17-3.71,1.09-6.56,2.79-8.53,2.89-3.33,7.59-5,14.1-5,10.55,0,15.82,3.83,15.82,11.48v23.53c0,2.08.9,3.12,2.7,3.12.22,0,.79-.17,1.72-.49.33-.11.55-.19.66-.25ZM1445.09,104.55l-10.82,2.79c-3.88.99-6.55,2-7.99,3.03-1.45,1.04-2.17,2.49-2.17,4.35,0,4.32,2.79,6.48,8.36,6.48,3.93,0,7.27-1.28,10-3.85,1.75-1.58,2.62-3.39,2.62-5.41v-7.38Z"/>
      <path class="cls-1" d="M1464.11,83.97h6.23v7.71c2.46-5.79,6.34-8.69,11.64-8.69.66,0,1.45.08,2.38.24v6.89c-4.37.05-7.38.69-9.02,1.89-3,2.19-4.51,6.26-4.51,12.21v21.89h-6.72v-42.14Z"/>
      <path class="cls-1" d="M1528.38,120.45v5.41c-1.86.66-3.31.99-4.35.99-4.37,0-6.75-1.99-7.13-5.98-3,4.1-7.79,6.15-14.35,6.15-4.54,0-8.06-1.25-10.57-3.77-2.19-2.19-3.28-5-3.28-8.44,0-3.94,1.4-6.97,4.18-9.1,1.58-1.2,4.89-2.38,9.92-3.52l13.77-3.12.08-3.52c0-4.21-3.17-6.31-9.51-6.31s-9.32,2.46-9.76,7.38h-6.81c.17-3.71,1.09-6.56,2.79-8.53,2.89-3.33,7.59-5,14.1-5,10.55,0,15.82,3.83,15.82,11.48v23.53c0,2.08.9,3.12,2.7,3.12.22,0,.79-.17,1.72-.49.33-.11.55-.19.66-.25ZM1516.66,104.55l-10.82,2.79c-3.88.99-6.55,2-7.99,3.03-1.45,1.04-2.17,2.49-2.17,4.35,0,4.32,2.79,6.48,8.36,6.48,3.93,0,7.27-1.28,10-3.85,1.75-1.58,2.62-3.39,2.62-5.41v-7.38Z"/>
      <g>
        <path class="cls-1" d="M306.08,337.2c-63.8-48.9-121.76-77.16-172.38-84.07.8-6.82,1.44-13.79,1.9-20.86,4.91-74.33-9.21-158.89-38.7-232.27-14.74,1.35-29.06,4.15-42.85,8.23l2.49,6.14c27.64,68.01,40.88,146.39,36.37,215.1-.52,7.92-1.29,15.76-2.3,23.28-25.22,3.41-47.06,13.42-63.43,29.21C.15,307.99-8.02,346.75,8.59,370.22c3.66,5.16,14.31,17.23,34.06,17.23,9.06,0,18.8-2.61,29.03-7.74,18.92-9.49,34.22-28.63,45.46-56.82,3.35-8.42,6.33-17.69,8.85-27.61.31.06.61.09.92.12,43.34,5.62,94.85,31.12,153.15,75.78l4.73,3.62c9.55-10.57,18.12-22.05,25.56-34.31l-4.27-3.29ZM52.46,341.47c-4.18,2.09-7.65,3.01-9.34,3.1-1.38-4.33.03-18.55,13.73-31.76,6.42-6.14,14.25-10.81,23.47-13.95-7.4,22.05-17.29,37.29-27.86,42.6Z"/>
        <g>
          <path class="cls-1" d="M366.04,160.77v-5.01c0-26.66-6.79-48.25-20.33-64.72-15.42-18.74-37.41-28.14-65.95-28.14-1.57,0-3.1.03-4.64.12-21.53.86-39.65,7.92-54.46,21.13-18.34,16.46-27.49,38.36-27.49,65.67s8.85,47,26.57,62.81c15.82,14.19,36.58,21.26,62.2,21.26s45.21-7.13,60.63-21.41c2.06-1.87,4.05-3.93,5.96-6.08,7.06-8.14,11.89-16.99,14.38-26.57h-50.01c-7.1,12.07-17.42,18.12-30.96,18.12-11.06,0-19.81-3.29-26.26-9.86-6.45-6.54-9.89-15.67-10.32-27.34h120.68ZM246,130.45c3.13-21.07,14.59-31.58,34.37-31.58s30.75,10.5,33.45,31.58h-67.82Z"/>
          <path class="cls-1" d="M635.17,80.41c-10.2-11.67-24.7-17.51-43.43-17.51-21.26,0-38.46,8.66-51.6,25.96-8.94-17.29-24.17-25.96-45.61-25.96s-37.93,8.66-50.04,25.96v-21.56h-51.27v162.24h53.14v-89.11c0-22.7,8.75-34.06,26.26-34.06,14.38,0,21.56,8.97,21.56,26.88v96.29h53.14v-89.11c0-9.98,1.17-17.17,3.44-21.56,4.39-8.32,11.67-12.5,21.9-12.5,14.99,0,22.51,9.68,22.51,29.06v94.11h53.14v-107.84c0-17.11-4.39-30.84-13.15-41.28Z"/>
          <path class="cls-1" d="M847.11,155.76c0-26.66-6.76-48.25-20.3-64.72-15.42-18.74-37.41-28.14-65.98-28.14-23.53,0-43.22,7.1-59.07,21.26-18.34,16.46-27.52,38.36-27.52,65.67s8.88,47,26.57,62.81c15.85,14.19,36.58,21.26,62.23,21.26,28.32,0,50.53-9.15,66.56-27.49,7.1-8.14,11.89-16.99,14.41-26.57h-50.04c-7.1,12.07-17.39,18.12-30.93,18.12-11.06,0-19.81-3.29-26.26-9.86-6.48-6.54-9.92-15.67-10.32-27.34h120.65v-5.01ZM727.07,130.45c3.13-21.07,14.59-31.58,34.4-31.58s30.75,10.5,33.45,31.58h-67.85Z"/>
        </g>
        <g>
          <path class="cls-1" d="M955.25,67.38v52.18h29.01v6.66h-36.48v-58.83h7.48Z"/>
          <path class="cls-1" d="M1029.28,120.54v5.42c-1.86.66-3.31.99-4.35.99-4.38,0-6.77-2-7.15-6-3.01,4.11-7.8,6.16-14.38,6.16-4.55,0-8.08-1.26-10.6-3.78-2.19-2.19-3.28-5.01-3.28-8.46,0-3.94,1.4-6.98,4.19-9.12,1.59-1.2,4.9-2.38,9.94-3.53l13.8-3.12.08-3.53c0-4.22-3.18-6.33-9.53-6.33s-9.34,2.47-9.78,7.39h-6.82c.17-3.72,1.1-6.57,2.8-8.54,2.9-3.34,7.61-5.01,14.13-5.01,10.57,0,15.86,3.83,15.86,11.5v23.58c0,2.08.9,3.12,2.71,3.12.22,0,.79-.16,1.73-.49.33-.11.55-.19.66-.25ZM1017.53,104.6l-10.85,2.79c-3.89.99-6.56,2-8.01,3.04-1.45,1.04-2.18,2.49-2.18,4.36,0,4.33,2.79,6.49,8.38,6.49,3.94,0,7.28-1.29,10.02-3.86,1.75-1.59,2.63-3.4,2.63-5.42v-7.4Z"/>
          <path class="cls-1" d="M1035.36,67.38h6.66v22.27c3.12-4.38,7.5-6.57,13.15-6.57,5.97,0,10.57,2.19,13.8,6.57,2.85,3.84,4.27,8.9,4.27,15.2,0,7.29-1.89,12.96-5.67,17.01-3.29,3.51-7.53,5.26-12.73,5.26-5.86,0-10.33-2.22-13.39-6.66v5.75h-6.08v-58.83ZM1053.93,89.32c-3.62,0-6.51,1.47-8.67,4.4-2.16,2.93-3.25,6.81-3.25,11.63s1.23,8.98,3.7,11.83c2.14,2.41,4.87,3.62,8.22,3.62,3.72,0,6.7-1.4,8.92-4.19,2.22-2.79,3.33-6.54,3.33-11.26,0-5.15-1.26-9.2-3.78-12.16-2.19-2.57-5.01-3.86-8.46-3.86Z"/>
          <path class="cls-1" d="M1098.05,83.07c6.35,0,11.2,2.22,14.54,6.66,2.96,3.83,4.44,9.04,4.44,15.61,0,7.34-1.92,12.93-5.75,16.76-3.29,3.34-7.72,5.01-13.31,5.01-6.46,0-11.39-2.16-14.79-6.49-2.96-3.78-4.44-8.87-4.44-15.28,0-7.45,1.94-13.17,5.83-17.17,3.34-3.4,7.83-5.09,13.47-5.09ZM1098.05,89.23c-3.83,0-6.85,1.44-9.04,4.31-2.19,2.88-3.29,6.81-3.29,11.79s1.23,9.18,3.7,11.91c2.14,2.41,4.98,3.62,8.54,3.62,3.78,0,6.73-1.37,8.83-4.11,2.11-2.74,3.17-6.55,3.17-11.42,0-5.37-1.21-9.48-3.62-12.33-2.08-2.52-4.85-3.78-8.3-3.78Z"/>
          <path class="cls-1" d="M1126.31,83.98h6.24v7.72c2.47-5.81,6.35-8.71,11.67-8.71.66,0,1.45.08,2.38.25v6.9c-4.38.05-7.39.69-9.04,1.89-3.01,2.19-4.52,6.27-4.52,12.24v21.94h-6.74v-42.23Z"/>
          <path class="cls-1" d="M1190.73,120.54v5.42c-1.86.66-3.31.99-4.35.99-4.38,0-6.77-2-7.15-6-3.01,4.11-7.8,6.16-14.38,6.16-4.55,0-8.08-1.26-10.6-3.78-2.19-2.19-3.28-5.01-3.28-8.46,0-3.94,1.4-6.98,4.19-9.12,1.59-1.2,4.9-2.38,9.94-3.53l13.8-3.12.08-3.53c0-4.22-3.18-6.33-9.53-6.33s-9.34,2.47-9.78,7.39h-6.82c.17-3.72,1.1-6.57,2.8-8.54,2.9-3.34,7.61-5.01,14.13-5.01,10.57,0,15.86,3.83,15.86,11.5v23.58c0,2.08.9,3.12,2.71,3.12.22,0,.79-.16,1.73-.49.33-.11.55-.19.66-.25ZM1178.98,104.6l-10.85,2.79c-3.89.99-6.56,2-8.01,3.04-1.45,1.04-2.18,2.49-2.18,4.36,0,4.33,2.79,6.49,8.38,6.49,3.94,0,7.28-1.29,10.02-3.86,1.75-1.59,2.63-3.4,2.63-5.42v-7.4Z"/>
          <path class="cls-1" d="M1214.64,83.98v5.42h-8.63v28.1c0,.99.34,1.82,1.03,2.51.68.69,1.57,1.03,2.67,1.03,1.04,0,2.63-.25,4.77-.74l.74,5.92c-3.4.6-5.97.9-7.72.9-5.42,0-8.14-2.22-8.14-6.66v-31.06h-5.75v-5.42h5.75v-8.63l6.66-3.04v11.67h8.63Z"/>
          <path class="cls-1" d="M1239.04,83.07c6.35,0,11.2,2.22,14.54,6.66,2.96,3.83,4.44,9.04,4.44,15.61,0,7.34-1.92,12.93-5.75,16.76-3.29,3.34-7.72,5.01-13.31,5.01-6.46,0-11.39-2.16-14.79-6.49-2.96-3.78-4.44-8.87-4.44-15.28,0-7.45,1.94-13.17,5.83-17.17,3.34-3.4,7.83-5.09,13.47-5.09ZM1239.04,89.23c-3.83,0-6.85,1.44-9.04,4.31-2.19,2.88-3.29,6.81-3.29,11.79s1.23,9.18,3.7,11.91c2.14,2.41,4.98,3.62,8.54,3.62,3.78,0,6.73-1.37,8.83-4.11,2.11-2.74,3.17-6.55,3.17-11.42,0-5.37-1.21-9.48-3.62-12.33-2.08-2.52-4.85-3.78-8.3-3.78ZM1243.57,66.47h9.04l-12,12h-4.85l7.81-12Z"/>
          <path class="cls-1" d="M1267.31,83.98h6.24v7.72c2.47-5.81,6.35-8.71,11.67-8.71.66,0,1.45.08,2.38.25v6.9c-4.38.05-7.39.69-9.04,1.89-3.01,2.19-4.52,6.27-4.52,12.24v21.94h-6.74v-42.23Z"/>
          <path class="cls-1" d="M1297.38,67.46c1.15,0,2.12.4,2.92,1.19.79.79,1.19,1.74,1.19,2.84,0,1.15-.4,2.12-1.19,2.92-.8.79-1.77,1.19-2.92,1.19s-2.04-.4-2.84-1.19c-.79-.79-1.19-1.77-1.19-2.92s.4-2.04,1.19-2.84c.79-.79,1.74-1.19,2.84-1.19ZM1300.59,83.98v42.23h-6.66v-42.23h6.66Z"/>
          <path class="cls-1" d="M1328.69,83.07c6.35,0,11.2,2.22,14.54,6.66,2.96,3.83,4.44,9.04,4.44,15.61,0,7.34-1.92,12.93-5.75,16.76-3.29,3.34-7.72,5.01-13.31,5.01-6.46,0-11.39-2.16-14.79-6.49-2.96-3.78-4.44-8.87-4.44-15.28,0-7.45,1.94-13.17,5.83-17.17,3.34-3.4,7.83-5.09,13.47-5.09ZM1328.69,89.23c-3.83,0-6.85,1.44-9.04,4.31-2.19,2.88-3.29,6.81-3.29,11.79s1.23,9.18,3.7,11.91c2.14,2.41,4.98,3.62,8.54,3.62,3.78,0,6.73-1.37,8.83-4.11,2.11-2.74,3.17-6.55,3.17-11.42,0-5.37-1.21-9.48-3.62-12.33-2.08-2.52-4.85-3.78-8.3-3.78Z"/>
          <path class="cls-1" d="M956.23,204.37v25.31h-7.48v-58.83h27.03c6.24,0,10.9,1.53,13.97,4.6,2.68,2.68,4.03,6.41,4.03,11.17,0,3.34-.73,6.11-2.18,8.3-1.45,2.19-3.85,4.11-7.19,5.75,2.68,1.04,4.66,2.44,5.92,4.19,1.26,1.81,1.97,5.5,2.14,11.09.11,4.11.37,6.86.78,8.26.41,1.4,1.33,2.59,2.75,3.57v1.89h-9.04c-1.2-2.52-1.81-5.18-1.81-7.97l.08-9.2c0-.6-.25-1.53-.74-2.79-.49-1.26-.96-2.16-1.4-2.71-1.48-1.75-4-2.63-7.56-2.63h-19.31ZM956.23,197.72h18.16c7.72,0,11.59-3.37,11.59-10.11s-3.86-10.11-11.59-10.11h-18.16v20.21Z"/>
          <path class="cls-1" d="M1040.86,210.53h-31.14c.05,3.62.82,6.49,2.3,8.63,2.36,3.45,5.75,5.18,10.19,5.18,5.48,0,9.17-2.6,11.09-7.81h6.74c-.88,4.44-2.9,7.89-6.08,10.35-3.18,2.47-7.18,3.7-12,3.7-6.41,0-11.31-2.19-14.71-6.57-3.01-3.83-4.52-8.9-4.52-15.2,0-7.29,1.97-12.95,5.92-17.01,3.45-3.51,7.91-5.26,13.39-5.26,4,0,7.52.96,10.56,2.88,3.04,1.92,5.22,4.55,6.53,7.89,1.15,2.85,1.73,7.18,1.73,12.98v.25ZM1033.63,205.03c0-3.67-1.08-6.64-3.25-8.91-2.17-2.27-4.95-3.41-8.34-3.41s-6.26,1.11-8.42,3.33c-2.17,2.22-3.38,5.22-3.66,9h23.67Z"/>
          <path class="cls-1" d="M1084.41,170.85v58.83h-6.74v-5.83c-2.68,4.55-6.85,6.82-12.49,6.82-6.19,0-10.96-2.25-14.3-6.74-2.9-3.94-4.35-9.15-4.35-15.61,0-7.07,1.89-12.6,5.67-16.6,3.23-3.45,7.42-5.18,12.57-5.18,5.69,0,9.99,2.14,12.9,6.41v-22.1h6.74ZM1065.92,192.78c-3.73,0-6.73,1.47-9,4.4-2.27,2.93-3.41,6.81-3.41,11.63s1.31,8.9,3.94,11.75c2.25,2.52,5.09,3.78,8.54,3.78s6.4-1.4,8.51-4.19c2.11-2.79,3.16-6.57,3.16-11.34,0-5.2-1.2-9.26-3.61-12.16-2.14-2.57-4.85-3.86-8.13-3.86Z"/>
          <path class="cls-1" d="M1128.12,229.68h-6.66v-6.66c-3.01,5.04-7.5,7.56-13.47,7.56-4.11,0-7.38-1.03-9.82-3.08-2.44-2.06-3.66-4.81-3.66-8.26v-31.8h6.66v29.09c0,2.47.79,4.44,2.38,5.92,1.59,1.48,3.72,2.22,6.41,2.22,3.51,0,6.3-1.27,8.38-3.82,2.08-2.55,3.12-5.98,3.12-10.31v-23.09h6.66v42.23Z"/>
          <path class="cls-1" d="M1155.81,230.58l-1.48,3.53c.88-.05,1.62-.08,2.22-.08,4.27,0,6.41,1.78,6.41,5.34,0,2.36-.88,4.2-2.63,5.55-1.75,1.34-4.19,2.01-7.31,2.01-2.58,0-5.92-.9-10.02-2.71l1.64-3.29c3.56,1.81,6.19,2.71,7.89,2.71,1.26,0,2.3-.36,3.12-1.07.82-.71,1.23-1.59,1.23-2.63,0-1.97-1.2-2.96-3.61-2.96-.82,0-1.67.19-2.55.58l-.99-.49,2.96-6.66c-5.37-.71-9.5-3.18-12.4-7.4-2.47-3.67-3.7-8.3-3.7-13.89,0-7.34,1.94-13.09,5.83-17.25,3.34-3.56,7.67-5.34,12.98-5.34,6.13,0,10.73,2.05,13.8,6.16,1.59,2.14,2.55,5.09,2.87,8.87h-6.74c-.82-5.92-4.16-8.87-10.02-8.87-3.67,0-6.55,1.45-8.63,4.35-2.08,2.91-3.12,6.93-3.12,12.08s1.23,8.98,3.7,11.67c2.08,2.36,4.87,3.53,8.38,3.53,5.64,0,9.01-3.07,10.1-9.2h6.82c-.44,5.15-2.27,9.09-5.5,11.83-2.9,2.3-6.66,3.51-11.26,3.62Z"/>
          <path class="cls-1" d="M1217.6,224.01v5.42c-1.86.66-3.31.99-4.35.99-4.38,0-6.77-2-7.15-6-3.01,4.11-7.8,6.16-14.38,6.16-4.55,0-8.08-1.26-10.6-3.78-2.19-2.19-3.28-5.01-3.28-8.46,0-3.94,1.4-6.98,4.19-9.12,1.59-1.2,4.9-2.38,9.94-3.53l13.8-3.12.08-3.53c0-4.22-3.18-6.33-9.53-6.33s-9.34,2.47-9.78,7.39h-6.82c.17-3.72,1.1-6.57,2.8-8.54,2.9-3.34,7.61-5.01,14.13-5.01,10.57,0,15.86,3.83,15.86,11.5v23.58c0,2.08.9,3.12,2.71,3.12.22,0,.79-.16,1.73-.49.33-.11.55-.19.66-.25ZM1205.85,208.07l-10.85,2.79c-3.89.99-6.56,2-8.01,3.04-1.45,1.04-2.18,2.49-2.18,4.36,0,4.33,2.79,6.49,8.38,6.49,3.94,0,7.28-1.29,10.02-3.86,1.75-1.59,2.63-3.4,2.63-5.42v-7.4ZM1205.61,171.83h4.68c-.82,5.59-3.18,8.38-7.07,8.38-1.1,0-2.33-.25-3.7-.74l-4.52-1.73c-1.04-.44-1.94-.66-2.71-.66-1.26,0-2.17,1.01-2.71,3.04h-4.6c.93-5.59,3.23-8.38,6.9-8.38,1.21,0,2.44.27,3.7.82l3.37,1.32c1.53.6,2.79.9,3.78.9,1.31,0,2.27-.99,2.88-2.96Z"/>
          <path class="cls-1" d="M1241.51,186.54c6.35,0,11.2,2.22,14.54,6.66,2.96,3.83,4.44,9.04,4.44,15.61,0,7.34-1.92,12.93-5.75,16.76-3.29,3.34-7.72,5.01-13.31,5.01-6.46,0-11.39-2.16-14.79-6.49-2.96-3.78-4.44-8.87-4.44-15.28,0-7.45,1.94-13.17,5.83-17.17,3.34-3.4,7.83-5.09,13.47-5.09ZM1241.51,192.7c-3.83,0-6.85,1.44-9.04,4.31-2.19,2.88-3.29,6.81-3.29,11.79s1.23,9.18,3.7,11.91c2.14,2.41,4.98,3.62,8.54,3.62,3.78,0,6.73-1.37,8.83-4.11,2.11-2.74,3.17-6.55,3.17-11.42,0-5.37-1.21-9.48-3.62-12.33-2.08-2.52-4.85-3.78-8.3-3.78Z"/>
          <path class="cls-1" d="M1319.32,170.85v58.83h-6.74v-5.83c-2.68,4.55-6.85,6.82-12.49,6.82-6.19,0-10.96-2.25-14.3-6.74-2.9-3.94-4.35-9.15-4.35-15.61,0-7.07,1.89-12.6,5.67-16.6,3.23-3.45,7.42-5.18,12.57-5.18,5.69,0,9.99,2.14,12.9,6.41v-22.1h6.74ZM1300.83,192.78c-3.73,0-6.73,1.47-9,4.4-2.27,2.93-3.41,6.81-3.41,11.63s1.31,8.9,3.94,11.75c2.25,2.52,5.09,3.78,8.54,3.78s6.4-1.4,8.51-4.19c2.11-2.79,3.16-6.57,3.16-11.34,0-5.2-1.2-9.26-3.61-12.16-2.14-2.57-4.85-3.86-8.13-3.86Z"/>
          <path class="cls-1" d="M1415.78,229.68h-8.13l-21.12-58.83h8.05l17.34,49.79,16.27-49.79h7.97l-20.38,58.83Z"/>
          <path class="cls-1" d="M1446.76,170.93c1.15,0,2.12.4,2.92,1.19.79.79,1.19,1.74,1.19,2.84,0,1.15-.4,2.12-1.19,2.92-.8.79-1.77,1.19-2.92,1.19s-2.04-.4-2.84-1.19c-.79-.79-1.19-1.77-1.19-2.92s.4-2.04,1.19-2.84c.79-.79,1.74-1.19,2.84-1.19ZM1449.96,187.44v42.23h-6.66v-42.23h6.66Z"/>
          <path class="cls-1" d="M1478.06,186.54c6.35,0,11.2,2.22,14.54,6.66,2.96,3.83,4.44,9.04,4.44,15.61,0,7.34-1.92,12.93-5.75,16.76-3.29,3.34-7.72,5.01-13.31,5.01-6.46,0-11.39-2.16-14.79-6.49-2.96-3.78-4.44-8.87-4.44-15.28,0-7.45,1.94-13.17,5.83-17.17,3.34-3.4,7.83-5.09,13.47-5.09ZM1478.06,192.7c-3.83,0-6.85,1.44-9.04,4.31-2.19,2.88-3.29,6.81-3.29,11.79s1.23,9.18,3.7,11.91c2.14,2.41,4.98,3.62,8.54,3.62,3.78,0,6.73-1.37,8.83-4.11,2.11-2.74,3.17-6.55,3.17-11.42,0-5.37-1.21-9.48-3.62-12.33-2.08-2.52-4.85-3.78-8.3-3.78Z"/>
          <path class="cls-1" d="M1512.98,170.85v58.83h-6.74v-58.83h6.74Z"/>
          <path class="cls-1" d="M1559.98,210.53h-31.14c.05,3.62.82,6.49,2.3,8.63,2.36,3.45,5.75,5.18,10.19,5.18,5.48,0,9.17-2.6,11.09-7.81h6.74c-.88,4.44-2.9,7.89-6.08,10.35-3.18,2.47-7.18,3.7-12,3.7-6.41,0-11.31-2.19-14.71-6.57-3.01-3.83-4.52-8.9-4.52-15.2,0-7.29,1.97-12.95,5.92-17.01,3.45-3.51,7.91-5.26,13.39-5.26,4,0,7.52.96,10.56,2.88,3.04,1.92,5.22,4.55,6.53,7.89,1.15,2.85,1.73,7.18,1.73,12.98v.25ZM1552.75,205.03c0-3.67-1.08-6.64-3.25-8.91-2.17-2.27-4.95-3.41-8.34-3.41s-6.26,1.11-8.42,3.33c-2.17,2.22-3.38,5.22-3.66,9h23.67ZM1537.88,169.86h7.64l7.8,12.16h-5.09l-6.49-7.72-6.41,7.72h-5.18l7.72-12.16Z"/>
          <path class="cls-1" d="M1569.18,187.44h6.24v7.15c3.4-5.37,8.05-8.05,13.97-8.05,4.11,0,7.37,1.03,9.78,3.08,2.41,2.06,3.62,4.81,3.62,8.26v31.8h-6.66v-29.09c0-2.52-.78-4.52-2.34-6-1.56-1.48-3.69-2.22-6.37-2.22-3.51,0-6.3,1.29-8.38,3.86-2.08,2.58-3.12,6-3.12,10.27v23.17h-6.74v-42.23Z"/>
          <path class="cls-1" d="M1646.33,201.58h-6.74c-.82-5.92-4.16-8.87-10.02-8.87-3.67,0-6.55,1.45-8.63,4.35-2.08,2.91-3.12,6.93-3.12,12.08s1.23,8.98,3.7,11.67c2.08,2.36,4.87,3.53,8.38,3.53,5.64,0,9.01-3.07,10.1-9.2h6.82c-.44,5.26-2.33,9.23-5.67,11.91-2.91,2.36-6.71,3.53-11.42,3.53-6.19,0-11.01-2.19-14.46-6.57-2.96-3.78-4.44-8.74-4.44-14.87,0-7.34,1.94-13.09,5.83-17.25,3.34-3.56,7.67-5.34,12.98-5.34,6.13,0,10.73,2.05,13.8,6.16,1.59,2.14,2.55,5.09,2.87,8.87Z"/>
          <path class="cls-1" d="M1657.51,170.93c1.15,0,2.12.4,2.92,1.19.79.79,1.19,1.74,1.19,2.84,0,1.15-.4,2.12-1.19,2.92-.8.79-1.77,1.19-2.92,1.19s-2.04-.4-2.84-1.19c-.79-.79-1.19-1.77-1.19-2.92s.4-2.04,1.19-2.84c.79-.79,1.74-1.19,2.84-1.19ZM1660.71,187.44v42.23h-6.66v-42.23h6.66Z"/>
          <path class="cls-1" d="M1709.77,224.01v5.42c-1.86.66-3.31.99-4.35.99-4.38,0-6.77-2-7.15-6-3.01,4.11-7.8,6.16-14.38,6.16-4.55,0-8.08-1.26-10.6-3.78-2.19-2.19-3.28-5.01-3.28-8.46,0-3.94,1.4-6.98,4.19-9.12,1.59-1.2,4.9-2.38,9.94-3.53l13.8-3.12.08-3.53c0-4.22-3.18-6.33-9.53-6.33s-9.34,2.47-9.78,7.39h-6.82c.17-3.72,1.1-6.57,2.8-8.54,2.9-3.34,7.61-5.01,14.13-5.01,10.57,0,15.86,3.83,15.86,11.5v23.58c0,2.08.9,3.12,2.71,3.12.22,0,.79-.16,1.73-.49.33-.11.55-.19.66-.25ZM1698.02,208.07l-10.85,2.79c-3.89.99-6.56,2-8.01,3.04-1.45,1.04-2.18,2.49-2.18,4.36,0,4.33,2.79,6.49,8.38,6.49,3.94,0,7.28-1.29,10.02-3.86,1.75-1.59,2.63-3.4,2.63-5.42v-7.4Z"/>
          <path class="cls-1" d="M1367.55,224.01v5.42c-1.86.66-3.31.99-4.35.99-4.38,0-6.77-2-7.15-6-3.01,4.11-7.8,6.16-14.38,6.16-4.55,0-8.08-1.26-10.6-3.78-2.19-2.19-3.28-5.01-3.28-8.46,0-3.94,1.4-6.98,4.19-9.12,1.59-1.2,4.9-2.38,9.94-3.53l13.8-3.12.08-3.53c0-4.22-3.18-6.33-9.53-6.33s-9.34,2.47-9.78,7.39h-6.82c.17-3.72,1.1-6.57,2.8-8.54,2.9-3.34,7.61-5.01,14.13-5.01,10.57,0,15.86,3.83,15.86,11.5v23.58c0,2.08.9,3.12,2.71,3.12.22,0,.79-.16,1.73-.49.33-.11.55-.19.66-.25ZM1355.8,208.07l-10.85,2.79c-3.89.99-6.56,2-8.01,3.04-1.45,1.04-2.18,2.49-2.18,4.36,0,4.33,2.79,6.49,8.38,6.49,3.94,0,7.28-1.29,10.02-3.86,1.75-1.59,2.63-3.4,2.63-5.42v-7.4Z"/>
        </g>
      </g>
    </g>
  </g>
</svg>